<?xml version="1.0" encoding="utf-8"?>
<!-- Generator: Adobe Illustrator 17.0.0, SVG Export Plug-In . SVG Version: 6.00 Build 0)  -->
<!DOCTYPE svg PUBLIC "-//W3C//DTD SVG 1.1//EN" "http://www.w3.org/Graphics/SVG/1.1/DTD/svg11.dtd">
<svg version="1.1" id="Layer_1" xmlns="http://www.w3.org/2000/svg" xmlns:xlink="http://www.w3.org/1999/xlink" x="0px" y="0px"
	 width="1980px" height="1400px" viewBox="0 0 1980 1400" enable-background="new 0 0 1980 1400" xml:space="preserve">
<g>
	<path opacity="0.2" fill="#49078F" d="M438.439,993.885c-19.146,19.143-19.146,50.176-0.002,69.325
		c19.142,19.137,50.175,19.137,69.321-0.004c4.254-4.26,602.731-602.737,608.192-608.199c19.145-19.145,19.145-50.178,0.002-69.314
		c-19.141-19.145-50.17-19.148-69.318-0.006C1041.171,391.15,442.693,989.627,438.439,993.885z"/>
	<path opacity="0.2" fill="#49078F" d="M1461.55,0.036c-68.958,68.958-117.305,117.306-118.503,118.505
		c-19.146,19.143-19.146,50.176-0.002,69.325c19.142,19.137,50.175,19.137,69.322-0.004c1.57-1.572,84.069-84.073,187.821-187.826
		C1600.188,0.036,1461.55,0.036,1461.55,0.036z"/>
	<path opacity="0.2" fill="#F9C5DC" enable-background="new    " d="M104.635,788.176c-2.76,2.76-63.33,63.33-104.59,104.6v-105.58
		c23.609-23.61,50.67-50.67,51.8-51.81c11.85-11.851,29.67-14.07,43.76-6.67c3.25,1.71,6.3,3.939,9.03,6.67
		C119.215,749.966,119.225,773.596,104.635,788.176z"/>
	<path opacity="0.2" fill="#49078F" d="M731.183,1095.879c-18.231,18.231-18.231,47.793,0.003,66.031
		c18.23,18.229,47.79,18.229,66.027-0.008c4.059-4.052,184.23-184.224,189.426-189.425c18.238-18.233,18.233-47.795,0.002-66.025
		c-18.229-18.234-47.789-18.234-66.026-0.006C915.414,911.654,735.237,1091.824,731.183,1095.879z"/>
	<path opacity="0.5" fill="#49078F" stroke="#49078F" stroke-miterlimit="10" d="M196.274,781.655
		c-2.06,2.05-106.84,106.84-196.229,196.22v-153.6c35.53-35.53,72.63-72.63,95.56-95.56c13.681-13.681,22.32-22.32,22.601-22.601
		c29.649-29.65,75.359-13.93,90.84,15.771C218.024,739.146,216.805,761.125,196.274,781.655z"/>
	<path opacity="0.5" fill="#49078F" d="M361.395,1071.936c-2.47,2.479-165.439,165.45-328.05,328.05h-33.3v-155.26
		c41.14-41.141,88.53-88.53,131.859-131.86c71.641-71.64,132.221-132.22,135.211-135.21c26.039-26.04,68.25-26.03,94.279,0
		C387.435,1003.695,387.435,1045.905,361.395,1071.936z"/>
	<path opacity="0.5" fill="#49078F" d="M505.401,664.792c-8.056,8.056-8.05,21.114,0.002,29.172
		c8.055,8.047,21.109,8.049,29.165-0.004c1.793-1.794,71.968-71.967,74.263-74.263c8.057-8.058,8.057-21.113,0-29.163
		c-8.053-8.054-21.109-8.058-29.163-0.004C577.367,592.831,507.194,663.001,505.401,664.792z"/>
	<path opacity="0.5" fill="#49078F" d="M861.677,0.011c-68.958,68.958-323.136,323.137-324.334,324.336
		c-19.146,19.143-19.146,50.176-0.002,69.325c19.142,19.137,50.175,19.137,69.322-0.004c1.57-1.572,289.9-289.904,393.653-393.657
		L861.677,0.011L861.677,0.011z"/>
	<path opacity="0.5" fill="#301441" d="M777.194,1407.5h11.313l573.683-573.682c43.629-43.63,93.956-65.309,145.569-62.699
		c46.399,2.35,92.926,24.616,131.009,62.699c36.551,36.552,79.604,55.491,124.45,54.748c41.932-0.687,82.982-19.021,115.59-51.63
		l101.177-101.177v-11.312h0L1873.152,831.28c-66.419,66.417-160.473,65.135-228.728-3.118
		c-39.486-39.487-87.879-62.583-136.261-65.032c-53.905-2.726-106.356,19.757-151.63,65.032"/>
	<path opacity="0.5" fill="#3F06A8" d="M463.521,15.68c4.795-4.794,8.916-10.049,12.361-15.644h-9.594
		c-2.496,3.511-5.293,6.856-8.416,9.979l-84.335,83.87c-19.849,19.85-25.844,44.244-16.447,66.929
		c9.247,22.322,31.152,37.32,54.509,37.32c15.103,0,29.39-6.305,41.316-18.232l44.364-44.36c9.321-9.323,20.058-14.25,31.046-14.25
		c15.708,0,30.467,10.153,36.726,25.266c6.42,15.499,2.361,32.127-11.134,45.623c-11.251,11.254-47.393,47.406-62.017,62.027
		c-29.002,28.998-67.568,44.968-108.595,44.968c-41.093,0-79.695-15.969-108.695-44.965L20.441,0.036H9.127l259.826,259.832
		c30.512,30.507,71.123,47.308,114.353,47.308c43.163,0,83.738-16.802,114.251-47.311c14.624-14.621,50.767-50.774,62.017-62.028
		c15.664-15.662,20.475-35.977,12.869-54.34c-7.482-18.066-25.212-30.205-44.117-30.205c-13.156,0-25.849,5.738-36.703,16.593
		l-44.363,44.36c-10.395,10.395-22.726,15.89-35.66,15.89c-19.845,0-39.22-13.316-47.117-32.382
		c-8.097-19.546-2.734-40.763,14.705-58.203L463.521,15.68z"/>
	<path opacity="0.5" fill="#49078F" d="M68.232,434.017c-10.564,0-20.495,4.113-27.966,11.584
		c-1.736,1.739-19.998,20.001-40.222,40.225v11.314c22.358-22.359,43.985-43.986,45.881-45.884
		c5.957-5.957,13.879-9.238,22.307-9.238c8.429,0,16.353,3.282,22.312,9.24c12.301,12.303,12.302,32.319,0,44.62
		c-3.375,3.376-69.228,69.229-90.499,90.502v11.314c9.596-9.596,92.362-92.365,96.156-96.16c15.42-15.419,15.42-40.51,0-55.933
		C88.73,438.13,78.798,434.017,68.232,434.017z"/>
</g>
</svg>
